<svg xmlns="http://www.w3.org/2000/svg" width="44" height="45" fill="none"><g clip-path="url(#a)"><g clip-path="url(#b)"><path fill="#1ABCFE" d="M21.75 22.17c0-2.762 2.184-5 4.875-5 2.694 0 4.875 2.236 4.875 5 0 2.762-2.181 5-4.875 5-2.69 0-4.875-2.236-4.875-5"/><path fill="#0ACF83" d="M12 32.17c0-2.761 2.184-5 4.875-5h4.875v5c0 2.76-2.184 5-4.875 5S12 34.93 12 32.17"/><path fill="#FF7262" d="M21.75 7.17v10h4.875c2.694 0 4.875-2.239 4.875-5 0-2.76-2.181-5-4.875-5z"/><path fill="#F24E1E" d="M12 12.17c0 2.761 2.184 5 4.875 5h4.875v-10h-4.875c-2.691 0-4.875 2.24-4.875 5"/><path fill="#A259FF" d="M12 22.17c0 2.762 2.184 5 4.875 5h4.875v-10h-4.875c-2.691 0-4.875 2.237-4.875 5"/></g></g><defs><clipPath id="a"><path fill="#fff" d="M0 .17h44v44H0z"/></clipPath><clipPath id="b"><path fill="#fff" d="M0 .17h44v44H0z"/></clipPath></defs></svg>